<svg width="13" height="13" viewBox="0 0 13 13" fill="none" xmlns="http://www.w3.org/2000/svg">
<path fill-rule="evenodd" clip-rule="evenodd" d="M4.64312 4.35562H6.96437V5.51187C7.29875 4.84687 8.15625 4.24937 9.44437 4.24937C11.9137 4.24937 12.5 5.57312 12.5 8.00187V12.5H10V8.555C10 7.17187 9.66562 6.39187 8.81437 6.39187C7.63375 6.39187 7.14312 7.2325 7.14312 8.55437V12.5H4.64312V4.35562V4.35562ZM0.35625 12.3937H2.85625V4.24937H0.35625V12.3937V12.3937ZM3.21437 1.59375C3.21447 1.8033 3.17291 2.01077 3.09212 2.20412C3.01132 2.39746 2.89291 2.57282 2.74375 2.72C2.4415 3.02039 2.03238 3.18853 1.60625 3.1875C1.18087 3.18721 0.772694 3.0195 0.47 2.72063C0.321382 2.57295 0.203366 2.39739 0.122715 2.20402C0.0420634 2.01065 0.000361957 1.80327 0 1.59375C0 1.17063 0.16875 0.765625 0.470625 0.466875C0.773053 0.167599 1.1814 -0.000187007 1.60687 1.56415e-07C2.03312 1.56415e-07 2.44187 0.168125 2.74375 0.466875C3.045 0.765625 3.21437 1.17063 3.21437 1.59375Z" fill="#344054"/>
</svg>
