<svg width="14" height="12" viewBox="0 0 14 12" fill="none" xmlns="http://www.w3.org/2000/svg">
<path d="M4.39776 11.375C9.68067 11.375 12.5714 6.99742 12.5714 3.20762C12.5714 3.08446 12.5714 2.96131 12.5658 2.83815C13.126 2.4351 13.6134 1.92569 14 1.3491C13.4846 1.57862 12.93 1.72976 12.3473 1.80253C12.9412 1.44986 13.395 0.884473 13.6134 0.212721C13.0588 0.542999 12.4426 0.778112 11.7871 0.906865C11.2605 0.347072 10.5154 0 9.69188 0C8.10644 0 6.81793 1.28752 6.81793 2.87174C6.81793 3.09566 6.84594 3.31398 6.89076 3.5267C4.5042 3.40914 2.38655 2.26156 0.969188 0.526206C0.722689 0.951649 0.582633 1.44427 0.582633 1.97047C0.582633 2.9669 1.09244 3.84578 1.85994 4.36079C1.38936 4.344 0.946779 4.21524 0.560224 4.00252C0.560224 4.01372 0.560224 4.02491 0.560224 4.04171C0.560224 5.42999 1.55182 6.59436 2.86275 6.85747C2.62185 6.92464 2.36975 6.95823 2.10644 6.95823C1.92157 6.95823 1.7423 6.94144 1.56863 6.90785C1.93277 8.04983 2.9972 8.87832 4.2521 8.90071C3.26611 9.67323 2.02801 10.1323 0.683474 10.1323C0.453782 10.1323 0.22409 10.1211 0 10.0931C1.26611 10.8992 2.77871 11.375 4.39776 11.375Z" fill="#344054"/>
</svg>
